# xmcd
#
# Track frame offsets:
#	150
#	14438
#	29318
#	46257
#	63680
#	77443
#	94480
#	109142
#	126388
#	139632
#
# Disc length: 2069 seconds
#
# Revision: 0
# Processed by: cddbd v1.4PL0 Copyright (c) Steve Scherf et al.
# Submitted via: dBpowerAMP V4.0
#
DISCID=8608130a
DTITLE=Skip Ewing - Greatest Hits
DYEAR=1900
DGENRE=Country
TTITLE0=Your Memory
TTITLE1=Burnin' A Hole In My Heart
TTITLE2=The Gospel According To Luke
TTITLE3=The Coast Of Colorado
TTITLE4=It's You Again
TTITLE5=It Wasn't His Child
TTITLE6=If A Man Could Live On Love Alone
TTITLE7=I'm Your Man
TTITLE8=The Dotted Line
TTITLE9=I Don't Have Far To Fall
EXTD=
EXTT0=
EXTT1=
EXTT2=
EXTT3=
EXTT4=
EXTT5=
EXTT6=
EXTT7=
EXTT8=
EXTT9=
PLAYORDER=
